<svg width="15" height="9" fill="none" xmlns="http://www.w3.org/2000/svg">
    <g clip-path="url(#a)">
        <path d="M1.375 5.304h10.607l-2.33 2.33a.777.777 0 0 0 0 1.125.777.777 0 0 0 1.125 0l3.696-3.697a.777.777 0 0 0 0-1.125L10.777.241a.777.777 0 0 0-1.125 0 .777.777 0 0 0 0 1.125l2.33 2.33H1.375a.805.805 0 0 0-.804.804c0 .482.402.804.804.804Z" fill="#4089ED"/>
    </g>
    <defs>
        <clipPath id="a">
            <path fill="#fff" transform="rotate(-180 7.357 4.5)" d="M0 0h14.143v9H0z"/>
        </clipPath>
    </defs>
</svg>